<svg xmlns="http://www.w3.org/2000/svg" viewBox="0 0 201.16 41.93"><defs>
<style>.cls-1{fill:#0d1235;}</style></defs>
<g id="Layer_2" data-name="Layer 2"><g id="Layer_1-2" data-name="Layer 1"><path class="cls-1" d="M189.46,1.49V7.22h-1.75V1.49h-2V0h5.82V1.49Z"/><path class="cls-1" d="M199.45,7.22l0-5.11h0l-1.88,5.11h-1.22l-1.83-5.11h0l0,5.11H192.9V0h2.48L197,4.63h0L198.64,0h2.52V7.22Z"/><path class="cls-1" d="M110.7,28.23c-.58-9.38-.29-18.78-.38-28.2h11.92V41.92H107.58a.54.54,0,0,1-.57-.35C104.17,36,95,17.79,93.57,14.09a.59.59,0,0,0-.2-.27c.6,9.35.33,18.7.39,28.08H81.91V0H96.57A.43.43,0,0,1,97,.25c3.11,6.3,12.09,24.82,13.45,27.78l.11.22Z"/><path class="cls-1" d="M42.39,0H75.8v9H55v7.41H73.63v8.69H55v7.7H75.79v9H42.39Z"/><path class="cls-1" d="M184.25,41.92h-14.4a.56.56,0,0,1-.57-.3c-1.5-2.51-7.4-12.58-7.48-12.73-.15.27-5.14,8.75-7.5,12.76a.48.48,0,0,1-.47.27l-14.28,0c.08-.13,9.61-14.34,14.32-21.33a.48.48,0,0,0,0-.64L140.6,0h13.79a.63.63,0,0,1,.62.35c2.33,3.88,4.68,7.76,7,11.68.41-.68,5.06-8.54,7-11.8a.52.52,0,0,1,.37-.21C174,0,183.2,0,183.29,0c-.09.14-8.92,13.41-13.28,19.91a.58.58,0,0,0,0,.75C174.68,27.62,184.13,41.74,184.25,41.92Z"/><path class="cls-1" d="M12.44,28.14V41.9H0V0H18.29a42.81,42.81,0,0,1,9.64,1,12.93,12.93,0,0,1,6.53,3.67,11.08,11.08,0,0,1,2.83,5.71,19.06,19.06,0,0,1,.29,4.83,14,14,0,0,1-1.74,6.58,11.36,11.36,0,0,1-4,3.91,17.2,17.2,0,0,1-6.3,2,69.16,69.16,0,0,1-10.57.47Zm0-19.3V19.4l.31,0c1.61,0,3.22,0,4.83,0a27.32,27.32,0,0,0,3.62-.29A4,4,0,0,0,24.76,16a8.18,8.18,0,0,0,0-3.78,3.55,3.55,0,0,0-2.37-2.84A8.43,8.43,0,0,0,20,8.93c-2.44-.08-4.88-.08-7.32-.1Z"/><path class="cls-1" d="M140.48,26.58H128.66V15.38h11.82Z"/></g></g></svg>